<?xml version="1.0" encoding="UTF-8" standalone="no"?>
<!-- Creator: CorelDRAW X8 -->

<svg
   xml:space="preserve"
   width="2.32193in"
   height="2.644in"
   version="1.1"
   style="shape-rendering:geometricPrecision; text-rendering:geometricPrecision; image-rendering:optimizeQuality; fill-rule:evenodd; clip-rule:evenodd"
   viewBox="0 0 2322 2644"
   id="svg1"
   sodipodi:docname="GrapheneOS_logo.svg"
   inkscape:version="1.3 (0e150ed, 2023-07-21)"
   xmlns:inkscape="http://www.inkscape.org/namespaces/inkscape"
   xmlns:sodipodi="http://sodipodi.sourceforge.net/DTD/sodipodi-0.dtd"
   xmlns="http://www.w3.org/2000/svg"
   xmlns:svg="http://www.w3.org/2000/svg"><sodipodi:namedview
   id="namedview1"
   pagecolor="#ffffff"
   bordercolor="#999999"
   borderopacity="1"
   inkscape:showpageshadow="2"
   inkscape:pageopacity="0"
   inkscape:pagecheckerboard="0"
   inkscape:deskcolor="#d1d1d1"
   inkscape:document-units="in"
   inkscape:zoom="0.9297781"
   inkscape:cx="111.31688"
   inkscape:cy="126.912"
   inkscape:window-width="1440"
   inkscape:window-height="442"
   inkscape:window-x="0"
   inkscape:window-y="25"
   inkscape:window-maximized="0"
   inkscape:current-layer="Layer_x0020_1" />&#10; <defs
   id="defs1">&#10;  <style
   type="text/css"
   id="style1">&#10;   <![CDATA[
    .fil0 {fill:#1A1A1A;fill-rule:nonzero}
   ]]>&#10;  </style>&#10; </defs>&#10; <g
   id="Layer_x0020_1"
   inkscape:label="Layer 1">&#10;  <metadata
   id="CorelCorpID_0Corel-Layer" />&#10;  <path
   class="fil0"
   d="M605 798l381 -217c-7,-21 -12,-43 -12,-67 0,-92 67,-168 155,-184l0 -330 64 0 0 330c88,16 155,92 155,184 0,24 -5,46 -13,67l382 217c14,-16 31,-30 50,-42 80,-46 180,-26 237,42l286 -165 32 56 -286 165c31,84 -2,180 -82,226 -18,10 -36,17 -55,21l0 442c19,4 37,11 55,21 80,46 113,142 82,226l286 165 -32 56 -286 -165c-57,68 -157,88 -237,42 -19,-12 -36,-26 -50,-42 -127,72 -254,145 -382,217 8,21 13,43 13,67 0,92 -67,168 -155,184l0 330 -64 0 0 -330c-88,-16 -155,-92 -155,-184 0,-24 5,-46 12,-67l-381 -217c-14,16 -31,30 -50,42 -80,46 -180,26 -237,-42l-286 165 -32 -56 286 -165c-31,-84 2,-180 82,-226 18,-10 36,-17 55,-21l0 -442c-19,-4 -37,-11 -55,-21 -80,-46 -113,-142 -82,-226l-286 -165 32 -56 286 165c57,-68 157,-88 237,-42 19,12 36,26 50,42zm1080 992c-18,-50 -15,-108 14,-157 30,-52 81,-84 136,-92l0 -438c-55,-8 -106,-40 -136,-92 -29,-49 -32,-107 -14,-157l-382 -218c-35,40 -85,65 -142,65 -57,0 -107,-25 -142,-65l-382 218c18,50 15,108 -14,157 -30,52 -81,84 -136,92l0 438c55,8 106,40 136,92 29,49 32,107 14,157l382 218c35,-40 85,-65 142,-65 57,0 107,25 142,65l382 -218z"
   id="path1"
   style="fill:#f2f2f2" />&#10; </g>&#10;</svg>
