<?xml version="1.0" encoding="UTF-8" standalone="no"?>
<svg
   id="Layer_1"
   data-name="Layer 1"
   viewBox="0 0 185.35001 174.47"
   version="1.1"
   sodipodi:docname="kali.svg"
   inkscape:version="1.3 (0e150ed, 2023-07-21)"
   width="185.35001"
   height="174.47"
   xmlns:inkscape="http://www.inkscape.org/namespaces/inkscape"
   xmlns:sodipodi="http://sodipodi.sourceforge.net/DTD/sodipodi-0.dtd"
   xmlns="http://www.w3.org/2000/svg"
   xmlns:svg="http://www.w3.org/2000/svg"
   xmlns:rdf="http://www.w3.org/1999/02/22-rdf-syntax-ns#"
   xmlns:cc="http://creativecommons.org/ns#"
   xmlns:dc="http://purl.org/dc/elements/1.1/">
  <defs
     id="defs1" />
  <sodipodi:namedview
     id="namedview1"
     pagecolor="#ffffff"
     bordercolor="#999999"
     borderopacity="1"
     inkscape:showpageshadow="2"
     inkscape:pageopacity="0"
     inkscape:pagecheckerboard="0"
     inkscape:deskcolor="#d1d1d1"
     inkscape:zoom="1.6424198"
     inkscape:cx="46.577617"
     inkscape:cy="61.494631"
     inkscape:window-width="1440"
     inkscape:window-height="900"
     inkscape:window-x="0"
     inkscape:window-y="0"
     inkscape:window-maximized="0"
     inkscape:current-layer="Layer_1" />
  <title
     id="title1">Kali Linux dragon logo - Brandlogos.net</title>
  <path
     d="m 98.728039,29.862933 c 0,0 -15.108371,-1.261979 -40.841441,8.833856 -26.221389,10.299977 -41.093002,24.868415 -41.093002,24.868415 0,0 39.080527,-27.373815 83.207044,-28.932732 z m 56.364161,29.693631 1.96809,-0.167027 c 0,0 -11.261,-17.129513 -32.80634,-25.462288 12.10446,6.179988 22.65516,14.345736 30.83825,25.629315 z m 3.21109,7.107914 c 0.29595,-0.64955 1.27259,2.078552 2.01247,3.24774 0,0.222702 0.0888,0.37117 -0.34034,0.259819 a 0.44392873,0.55675558 0 0 0 -0.10353,-0.296935 6.2445976,7.8316952 0 0 1 -1.34658,-1.317657 1.7609173,2.2084639 0 0 1 -0.22197,-1.855851 z m 26.44335,81.527572 c 0,0 2.38242,-34.40749 -40.70826,-42.33198 a 140.13351,175.74918 0 0 0 -19.35531,-1.85585 c -34.537649,0.57531 -35.795447,-49.959535 -9.76642,-52.520612 10.78746,-1.11351 23.6762,6.179987 36.25419,13.529162 a 5.9190498,7.4234078 0 0 0 1.05062,5.307735 c 1.02104,1.614592 4.972,3.359092 6.22981,4.26846 a 29.373284,36.838661 0 0 1 7.76874,8.165749 c 0.53273,-1.26198 5.0164,-4.918009 5.0164,-4.918009 a 11.260992,14.123033 0 0 1 -3.56623,-1.150628 18.511828,23.216708 0 0 1 -5.53431,-4.918006 c 0,-0.204145 -0.11836,-0.519639 0.47352,-0.668107 0.44394,-0.463965 -0.56231,-1.985762 -1.00623,-2.542519 -0.44393,-0.556755 -3.40346,-6.88521 -3.47745,-7.033678 a 0.81386936,1.0207186 0 0 0 -0.31074,-0.463963 15.493113,19.43077 0 0 0 -3.52183,0.389729 12.755552,15.997444 0 0 1 -5.91906,-8.592594 c 0,1.020718 -0.75468,2.152788 0,4.509719 -2.30844,-1.224862 -4.27651,-3.303416 -5.84506,-8.462683 a 4.4392873,5.5675558 0 0 0 0,4.788099 c 0,0 -5.41593,-1.855854 -6.289,-8.165751 a 3.8029896,4.7695395 0 0 0 0,4.50972 c 0,0 -8.87858,-5.790257 -23.52822,-5.86449 -9.84042,-1.132071 -11.8381,-22.82698 -10.96504,-26.48301 0,0 -14.190924,-9.3720499 -42.11404,-13.5105989 A 236.6732,296.82495 0 0 0 8.8028801,3.5469541 c 0,0 49.4536609,-2.96936298 89.0668989,17.1480699 a 137.72149,172.72414 0 0 0 7.576391,26.186071 c -6.244601,5.419089 -13.317868,10.504123 -14.383297,28.561562 -1.065429,18.057439 11.275797,33.943533 26.635727,34.426053 14.57566,0.96504 24.65285,1.11351 36.8461,9.05656 11.64572,8.07295 21.20499,32.70011 22.19643,54.84041 1.02104,-16.42428 -3.89177,-51.7597 -26.82809,-62.48652 32.06646,7.03368 34.878,36.83866 34.878,36.83866 z M 97.973359,27.171948 96.819149,22.51376 A 200.77418,251.802 0 0 0 52.189515,20.546556 C 26.589625,22.829254 0.75297246,34.057158 0.75297246,34.057158 c 0,0 52.87191054,-16.702666 97.22038654,-6.88521"
     id="path1"
     style="fill:#00ffff;stroke-width:2.357;stroke-dasharray:none" />
  <metadata
     id="metadata1">
    <rdf:RDF>
      <cc:Work
         rdf:about="">
        <dc:title>Kali Linux dragon logo - Brandlogos.net</dc:title>
      </cc:Work>
    </rdf:RDF>
  </metadata>
</svg>
