<?xml version="1.0" encoding="UTF-8" standalone="no"?>
<svg
   viewBox="0 0 108 36"
   preserveAspectRatio="xMinYMid"
   version="1.1"
   id="svg4"
   xml:space="preserve"
   width="108"
   height="36"
   sodipodi:docname="Linux.svg"
   inkscape:version="1.3 (0e150ed, 2023-07-21)"
   xmlns:inkscape="http://www.inkscape.org/namespaces/inkscape"
   xmlns:sodipodi="http://sodipodi.sourceforge.net/DTD/sodipodi-0.dtd"
   xmlns="http://www.w3.org/2000/svg"
   xmlns:svg="http://www.w3.org/2000/svg"><sodipodi:namedview
     id="namedview1"
     pagecolor="#ffffff"
     bordercolor="#999999"
     borderopacity="1"
     inkscape:showpageshadow="2"
     inkscape:pageopacity="0"
     inkscape:pagecheckerboard="0"
     inkscape:deskcolor="#d1d1d1"
     inkscape:zoom="3.025641"
     inkscape:cx="115.51271"
     inkscape:cy="39"
     inkscape:window-width="1440"
     inkscape:window-height="900"
     inkscape:window-x="0"
     inkscape:window-y="0"
     inkscape:window-maximized="0"
     inkscape:current-layer="g1407" /><defs
     id="defs8"><rect
       x="-138.24641"
       y="81.567238"
       width="382.3674"
       height="240.21156"
       id="rect495" /><rect
       x="-17.612623"
       y="104.35898"
       width="171.05238"
       height="197.31444"
       id="rect291" /></defs><g
     id="g1407"
     transform="translate(0.34772714,0.1182557)"><path
       id="rect749"
       style="fill:#ffffff;fill-opacity:1;stroke-width:5.2519;stroke-linecap:square;paint-order:stroke fill markers"
       d="m 26.713551,2.9817185 h 4.980863 v 3.830025 h -4.980863 z m 61.5008,18.5570605 -7.24,-10.240002 h 4.96 l 4.64,7.080002 h 0.24 l 4.76,-7.080002 h 4.719999 l -7.279999,10.160002 7.639999,10.88 h -4.959999 l -5.08,-7.72 h -0.24 l -5.12,7.72 h -4.72 z m -21.599998,11.28 q -6.68,0 -6.68,-7.24 V 11.298777 h 4.12 v 13.760002 q 0,2.36 1.04,3.32 1.08,0.92 3.12,0.92 1.4,0 2.6,-0.68 1.2,-0.72 1.88,-2 0.72,-1.28 0.72,-2.96 V 11.298777 h 4.12 v 21.040002 h -3.32 l -0.4,-2.8 h -0.28 q -1.16,1.6 -2.92,2.44 -1.76,0.84 -4,0.84 z M 37.134354,11.298777 h 3.320001 l 0.4,2.800002 h 0.28 q 1.12,-1.600002 2.88,-2.440002 1.8,-0.84 4.04,-0.84 6.68,0 6.68,7.240002 v 14.28 h -4.12 v -13.76 q 0,-2.36 -1.08,-3.28 -1.04,-0.96 -3.08,-0.96 -1.4,0 -2.6,0.72 -1.2,0.68 -1.92,1.96 -0.68,1.28 -0.68,2.96 v 12.36 H 37.134354 Z M 4.9344239,2.9817185 h 4.44 V 28.498779 H 23.654424 v 3.84 H 4.9344239 Z M 27.578802,14.514797 v 17.823982 h 4.115612 V 11.326311 h -6.387612 v 1.825681 z" /></g></svg>
