<?xml version="1.0" encoding="UTF-8" standalone="no"?>
<!-- Uploaded to: SVG Repo, www.svgrepo.com, Generator: SVG Repo Mixer Tools -->

<svg
   width="800px"
   height="800px"
   viewBox="0 0 32 32"
   fill="none"
   version="1.1"
   id="svg54"
   sodipodi:docname="Linux_logo.svg"
   inkscape:version="1.3 (0e150ed, 2023-07-21)"
   xmlns:inkscape="http://www.inkscape.org/namespaces/inkscape"
   xmlns:sodipodi="http://sodipodi.sourceforge.net/DTD/sodipodi-0.dtd"
   xmlns="http://www.w3.org/2000/svg"
   xmlns:svg="http://www.w3.org/2000/svg">
  <sodipodi:namedview
     id="namedview54"
     pagecolor="#ffffff"
     bordercolor="#999999"
     borderopacity="1"
     inkscape:showpageshadow="2"
     inkscape:pageopacity="0"
     inkscape:pagecheckerboard="0"
     inkscape:deskcolor="#d1d1d1"
     inkscape:zoom="0.295"
     inkscape:cx="398.30508"
     inkscape:cy="401.69492"
     inkscape:window-width="1440"
     inkscape:window-height="767"
     inkscape:window-x="0"
     inkscape:window-y="25"
     inkscape:window-maximized="0"
     inkscape:current-layer="svg54" />
  <path
     d="M 6.7212366,24.606083 C 6.5024898,24.331909 6.3111519,23.962183 6.1557772,23.519804 3.3508442,20.860395 5.5176933,16.946796 7.6609917,14.289295 7.8664703,14.005139 8.0902799,13.730671 8.333642,13.468091 c 1.6352756,-1.708163 2.058279,-2.89689 2.184149,-4.5051004 0.01501,-0.2994198 -0.01449,-0.6957117 -0.04836,-1.1511534 -0.173007,-2.3250569 -0.460536,-6.1881064 4.473745,-6.5305903 6.167854,-0.42815636 5.665416,4.3337409 5.619852,7.1256147 -0.0019,0.1155121 -0.0038,0.2279409 -0.0051,0.3364071 -0.01676,1.6829183 1.027917,2.8352463 2.118334,4.0379163 0.398212,0.439297 0.802536,0.885198 1.163563,1.366179 0.01062,0.01423 0.0213,0.02862 0.03196,0.04286 1.905523,2.310525 3.786779,5.758701 1.168278,9.029281 -0.368011,1.116368 -0.925265,2.141002 -1.669142,2.974829 -2.6707,2.95472 -5.044443,2.654712 -6.898289,2.420459 -0.559176,-0.0706 -1.071039,-0.135327 -1.529482,-0.102887 -0.76151,0.03904 -1.371837,0.142518 -1.899063,0.23205 -2.037853,0.345802 -2.834279,0.48098 -6.3228785,-4.13787 z"
     fill="#000000"
     id="path2"
     style="stroke-width:1.60075" />
  <path
     d="m 18.431253,3.8881404 c -0.05726,1.368512 -1.783841,2.5572397 -3.853642,2.667115 -2.069801,0.1098904 -3.693728,-0.9289952 -3.636466,-2.2975219 0.05709,-1.3685265 1.78384,-2.5572397 3.853641,-2.6671297 2.069801,-0.09988 3.693555,0.92901 3.636467,2.2975366 z"
     fill="url(#paint0_linear_87_7435)"
     id="path3"
     style="fill:url(#paint0_linear_87_7435);stroke-width:1.60075" />
  <path
     fill-rule="evenodd"
     clip-rule="evenodd"
     d="m 14.680787,7.2146111 c 0.01658,0.7441474 0.421955,1.3786542 0.991256,1.6653055 -1.857339,-0.1398772 -4.158805,0.4309305 -4.158805,1.5113384 -0.02863,1.82749 -1.238458,4.101322 -2.1094308,5.738007 -0.1714359,0.322463 -0.3297781,0.620121 -0.4635051,0.884757 -0.5390983,1.122386 -0.8625919,2.322856 -0.9008245,3.500135 -1.4278764,-1.654738 -0.3903572,-3.777539 0.1689918,-4.698844 0.7444023,-1.212358 0.7300872,-1.363682 0.440985,-1.079527 -1.108398,1.584578 -3.1956568,4.767388 -0.5818697,6.67942 0.082925,0.853788 0.3303022,1.68101 0.7698905,2.441449 3.4990728,5.933657 10.0515228,3.496318 12.2128028,0.419628 0.287531,-0.437534 0.520069,-0.860686 0.704598,-1.2696 0.10824,0.05724 0.224158,0.101575 0.347411,0.130776 1.086401,0.269773 2.710154,-0.759118 3.09894,-1.398468 0.468919,-0.849092 -0.01132,-1.428558 -1.612231,-2.117811 -0.0817,-0.0339 -0.162357,-0.0659 -0.241965,-0.09569 0.613991,-2.173585 -1.078022,-4.433914 -2.286453,-5.392793 -0.22538,-0.04682 -0.257154,0.06062 0.0927,0.35402 0.760988,0.613224 2.41634,2.799433 1.520753,4.834169 -0.147518,-0.03331 -0.289451,-0.0568 -0.424748,-0.06971 C 21.974146,17.862976 21.24057,16.783008 20.727832,16.028292 20.611737,15.8573 20.50699,15.70304 20.421272,15.56566 20.248789,15.2884 20.042438,15.001307 19.823516,14.696896 18.980128,13.523718 17.951338,12.092518 17.951338,9.9716256 17.822324,9.5050295 17.29859,9.193867 16.601498,9.0219939 c 0.80917,-0.1372345 1.416529,-0.9320187 1.395579,-1.887228 -0.02286,-1.0289636 -0.789094,-1.8480835 -1.703884,-1.8280928 -0.914791,0.019977 -1.646624,0.879048 -1.612406,1.907938 z m 0.754702,0.2297024 c -0.01131,0.5694856 0.30883,1.0288902 0.732007,1.0288902 0.411656,0 0.76605,-0.4594046 0.777572,-1.0189096 0.01131,-0.569324 -0.308829,-1.0288313 -0.731833,-1.0288313 -0.423177,0 -0.766224,0.4595073 -0.777746,1.0188507 z"
     fill="url(#paint1_linear_87_7435)"
     id="path4"
     style="fill:url(#paint1_linear_87_7435);stroke-width:1.60075" />
  <path
     fill-rule="evenodd"
     clip-rule="evenodd"
     d="m 12.393811,8.81284 c 0.663222,-0.029946 1.143488,-0.7790796 1.086401,-1.6680934 -0.05726,-0.8891021 -0.640354,-1.5783557 -1.303751,-1.548399 -0.663223,0.029972 -1.143488,0.7791677 -1.086226,1.668167 0.0571,0.889014 0.640353,1.5782677 1.303576,1.5483254 z m 0.400133,-1.3585459 c 0.05726,0.4695321 -0.148567,0.8690527 -0.445872,0.9091221 -0.297307,0.029942 -0.583267,-0.3196752 -0.640354,-0.7892072 -0.05726,-0.4694732 0.148566,-0.8690526 0.445874,-0.9090045 0.297306,-0.029972 0.583266,0.3196458 0.640352,0.7890896 z"
     fill="url(#paint2_linear_87_7435)"
     id="path5"
     style="fill:url(#paint2_linear_87_7435);stroke-width:1.60075" />
  <path
     d="m 15.606925,7.1246825 c -0.03439,0.319631 0.137218,0.5794222 0.377265,0.5993835 0.240219,0.019961 0.468915,-0.2298491 0.503134,-0.5393968 0.03439,-0.3197191 -0.137219,-0.5794368 -0.377265,-0.599413 -0.24022,-0.019976 -0.468916,0.2297611 -0.503134,0.5394263 z"
     fill="url(#paint3_linear_87_7435)"
     id="path6"
     style="fill:url(#paint3_linear_87_7435);stroke-width:1.60075" />
  <path
     d="m 12.5429,7.2047772 c 0.03421,0.2597912 -0.09148,0.4894936 -0.274436,0.5094549 -0.182959,0.019961 -0.354568,-0.1797989 -0.388961,-0.4494239 -0.03421,-0.2597765 0.09148,-0.4895228 0.274611,-0.5094988 0.182959,-0.019976 0.354394,0.1897942 0.388786,0.4494678 z"
     fill="url(#paint4_linear_87_7435)"
     id="path7"
     style="fill:url(#paint4_linear_87_7435);stroke-width:1.60075" />
  <path
     d="m 19.574917,17.62328 c 0,1.758067 -1.932584,4.035715 -5.248699,4.015754 -3.419291,0.01996 -4.8714334,-2.257687 -4.8714334,-4.015754 0,-1.758067 2.2641064,-3.186624 5.0543914,-3.186624 2.801634,0.01008 5.065741,1.428557 5.065741,3.186624 z"
     fill="url(#paint5_linear_87_7435)"
     id="path8"
     style="fill:url(#paint5_linear_87_7435);stroke-width:1.60075" />
  <path
     d="m 17.769078,12.099711 c -0.03421,1.818097 -1.395055,2.24756 -3.110464,2.24756 -1.71523,0 -2.961719,-0.269771 -3.110286,-2.24756 0,-1.23863 1.395056,-1.957973 3.110286,-1.957973 1.715409,-0.01 3.110464,0.709362 3.110464,1.957973 z"
     fill="url(#paint6_linear_87_7435)"
     id="path9"
     style="fill:url(#paint6_linear_87_7435);stroke-width:1.60075" />
  <path
     d="M 7.3973783,14.896502 C 8.5181714,13.408208 10.885105,11.120577 7.8434261,15.216176 5.3733169,18.59258 6.9286355,20.760294 7.7290776,21.359575 10.038924,23.157712 9.9474442,24.3664 8.1292111,23.417356 4.2298641,21.389518 5.0417931,17.973191 7.3973783,14.896502 Z"
     fill="url(#paint7_linear_87_7435)"
     id="path10"
     style="fill:url(#paint7_linear_87_7435);stroke-width:1.60075" />
  <path
     d="m 23.623562,15.506055 c -0.971876,-1.748085 -4.05947,-6.18332 0.148742,-1.028889 3.830773,4.664938 1.143488,7.911446 0.663224,8.231121 -0.480267,0.319676 -2.092672,0.968859 -1.623755,-0.159838 0.480266,-1.128843 2.858721,-3.266469 0.811789,-7.042394 z"
     fill="url(#paint8_linear_87_7435)"
     id="path11"
     style="fill:url(#paint8_linear_87_7435);stroke-width:1.60075" />
  <path
     d="M 6.5511971,29.291276 C 3.9896963,28.102548 0.27323741,29.520979 1.6225886,26.304413 1.897043,25.575237 1.2223501,24.476481 1.6568936,23.76712 c 0.5145871,-0.869053 1.6238055,-0.679272 2.2870462,-1.258593 0.6518056,-0.599281 1.0634613,-1.638152 2.2870809,-1.478461 1.2120976,0.159838 2.0240615,1.4585 2.870243,3.056728 0.6290056,1.138825 2.8473723,2.747035 2.6986323,4.025734 -0.182959,1.957828 -2.7330248,2.327406 -5.2486989,1.178748 z"
     fill="url(#paint9_linear_87_7435)"
     id="path12"
     style="fill:url(#paint9_linear_87_7435);stroke-width:1.60075" />
  <path
     fill-rule="evenodd"
     clip-rule="evenodd"
     d="m 4.2253598,22.742633 c -0.6228956,0.572861 -1.7669426,0.43548 -2.2260837,1.184911 -0.2948802,0.481274 0.027305,1.221018 0.070774,1.748086 0.0537,0.651238 -0.5883816,1.573864 -0.2613962,2.129993 0.3672256,0.624527 2.0262086,0.543508 2.7554922,0.633187 1.8002519,0.221042 4.7757648,2.179896 6.4037079,0.616599 C 12.559311,27.527191 9.5003492,25.593143 8.7500117,24.234597 8.2620648,23.312852 7.5318036,21.545833 6.1725367,21.366326 5.2142761,21.241275 4.7778302,22.234646 4.2253598,22.742633 Z m 2.0629223,-2.048682 c 1.6925371,0.223246 2.5394171,2.067908 3.1640581,3.247538 0.9481338,1.710657 4.1968618,3.54945 2.0912748,5.571417 C 9.6312826,31.34935 6.612125,29.376845 4.4557332,29.112065 3.3786896,28.979673 1.6799026,29.074782 1.1163287,28.116198 0.63178647,27.292207 1.3615065,26.545857 1.2937701,25.724506 c -0.057715,-0.699821 -0.38712743,-1.451308 0.017982,-2.11561 0.5545829,-0.933632 1.6252197,-0.707601 2.352897,-1.337703 0.7727363,-0.713912 1.23591,-1.758508 2.6236335,-1.577242 z"
     fill="#e68c3f"
     id="path13"
     style="stroke-width:1.60075" />
  <path
     d="m 24.310178,28.741898 c 1.875322,-1.987768 6.049141,-1.578267 3.236161,-4.30534 -0.594615,-0.589299 -0.411656,-1.848039 -1.143488,-2.387436 -0.857704,-0.659311 -1.806886,-0.119915 -2.675939,-0.459551 -0.86905,-0.369579 -1.78384,-1.078794 -2.847372,-0.579319 -1.063531,0.509454 -1.177879,1.828077 -1.280706,3.566183 -0.09148,1.248612 -1.395056,3.336334 -0.697615,4.48514 1.006443,1.778028 3.625119,1.538345 5.408959,-0.319677 z"
     fill="url(#paint10_linear_87_7435)"
     id="path14"
     style="fill:url(#paint10_linear_87_7435);stroke-width:1.60075" />
  <path
     fill-rule="evenodd"
     clip-rule="evenodd"
     d="m 25.057899,21.359722 c 0.480788,-0.01069 1.056721,0.01762 1.597566,0.431958 0.67265,0.498593 0.679285,1.31246 0.932947,1.993933 0.300274,0.806968 1.352808,1.267986 1.289785,2.214388 -0.102831,1.546858 -3.289406,1.919518 -4.270187,2.959272 -0.942549,0.981627 -2.133871,1.566084 -3.26444,1.644902 -1.714535,0.119475 -3.130712,-1.09259 -3.030505,-2.572518 0.08134,-1.198122 0.80725,-2.286455 0.895761,-3.47489 0.05098,-0.860686 0.105973,-1.658553 0.291022,-2.306417 0.186974,-0.654761 0.52391,-1.218523 1.191146,-1.538196 1.461223,-0.68632 2.872863,0.680446 4.366905,0.647568 z m -3.994004,-0.05063 c -0.395595,0.189926 -0.647161,0.539984 -0.808821,1.105799 -0.16358,0.572715 -0.21735,1.306589 -0.269375,2.183273 -0.0873,1.191223 -0.814583,2.278823 -0.895587,3.473716 -0.07228,1.065436 0.901174,1.94447 2.191658,1.854496 0.875858,-0.06105 1.886318,-0.52604 2.727611,-1.401843 0.751735,-0.796106 4.023332,-1.535411 4.091767,-2.564008 0.0447,-0.67164 -1.006268,-1.301743 -1.253123,-1.964578 -0.193084,-0.518848 -0.203209,-1.322585 -0.697616,-1.687026 -0.315986,-0.242766 -0.648383,-0.278872 -1.072958,-0.269479 -1.230252,0.02701 -2.871463,-1.265345 -4.013556,-0.73035 z"
     fill="#e68c3f"
     id="path15"
     style="stroke-width:1.60075" />
  <path
     d="m 23.496992,26.084691 c 2.904461,-3.745982 0.743182,-3.716041 0.01131,-4.005773 -0.731832,-0.299568 -1.497883,-0.889014 -2.355585,-0.479366 -0.857704,0.419481 -0.903443,1.498276 -0.926314,2.916852 -0.03421,1.01891 -1.00627,2.727073 -0.423003,3.675971 0.708963,1.108883 2.424194,-0.499475 3.693553,-2.107684 z"
     fill="url(#paint11_linear_87_7435)"
     id="path16"
     style="fill:url(#paint11_linear_87_7435);stroke-width:1.60075" />
  <path
     d="M 5.9564087,26.623794 C 1.6109616,24.166493 3.646423,23.327382 4.2982461,22.937696 5.0873577,22.438222 5.0987053,21.479343 6.0707575,21.56917 c 0.9718777,0.08998 1.5436218,1.138824 2.1954973,2.437486 0.480265,0.928935 2.1499332,2.167567 2.0240622,3.23638 -0.160088,1.25874 -2.4585876,0.429609 -4.3339083,-0.619242 z"
     fill="url(#paint12_linear_87_7435)"
     id="path17"
     style="fill:url(#paint12_linear_87_7435);stroke-width:1.60075" />
  <path
     d="m 24.950358,21.709046 c -0.343047,0.519435 -1.738101,1.338437 -2.664414,1.118716 -0.949009,-0.209741 -1.383534,-1.378506 -1.189229,-2.25754 0.171612,-0.998949 1.189229,-1.048852 2.470109,-0.549379 1.360664,0.539399 1.783842,0.998949 1.383534,1.688203 z"
     fill="#000000"
     id="path18"
     style="stroke-width:1.60075" />
  <path
     d="m 24.012349,21.419459 c -0.21735,0.359598 -1.132141,0.928937 -1.772494,0.77908 -0.640353,-0.149857 -0.960529,-0.958879 -0.857703,-1.568287 0.09148,-0.689254 0.777571,-0.729177 1.646797,-0.38954 0.937661,0.37956 1.234967,0.699234 0.9834,1.178747 z"
     fill="url(#paint13_linear_87_7435)"
     id="path19"
     style="fill:url(#paint13_linear_87_7435);stroke-width:1.60075" />
  <path
     d="m 12.187459,8.3839647 c 0.457397,-0.3697254 1.566666,-1.4984515 3.670685,-0.3196751 0.388785,0.2197216 0.708962,0.239683 1.452316,0.5194355 1.498058,0.5393971 0.78892,1.8379129 -0.811963,2.2775019 -0.686093,0.189779 -1.303577,0.918957 -2.538544,0.849091 -1.063531,-0.0499 -1.337968,-0.659312 -1.989843,-0.988967 -1.154837,-0.569339 -1.326447,-1.3385846 -0.697441,-1.748086 0.628832,-0.4095014 0.869049,-0.5593583 0.91479,-0.5893003 z"
     fill="url(#paint14_linear_87_7435)"
     id="path20"
     style="fill:url(#paint14_linear_87_7435);stroke-width:1.60075" />
  <path
     fill-rule="evenodd"
     clip-rule="evenodd"
     d="m 11.412157,9.1364781 c -0.239172,0.1557279 -0.315289,0.3626807 -0.236204,0.5916488 0.162358,0.4702661 1.33308,1.1171021 1.781396,1.4335471 0.254885,0.179946 0.546431,0.322611 1.017616,0.344774 1.009065,0.0571 1.569461,-0.595611 2.453526,-0.840138 0.581347,-0.159691 1.8116,-0.7696858 1.404133,-1.4687738 C 17.484866,8.6008976 16.313444,8.5640572 15.731574,8.235282 14.730192,7.6744562 14.001153,7.678419 13.481782,7.8357616 12.912658,8.0082217 11.927512,8.8008042 11.412157,9.1364781 Z m 1.916522,-1.6861468 c 0.675616,-0.2046039 1.553921,-0.1752489 2.656209,0.442232 0.7245,0.4095012 1.826787,0.3700187 2.263756,1.1198907 0.556731,0.9550627 -0.792236,1.799164 -1.679967,2.042955 -0.950578,0.263168 -1.481646,0.922332 -2.622691,0.858192 -0.591646,-0.02804 -0.971178,-0.215172 -1.282102,-0.4346 -0.645068,-0.455295 -1.73496,-0.887986 -1.984083,-1.6099705 -0.138267,-0.4004007 0.06338,-0.8057929 0.453205,-1.0597131 0.630054,-0.4102349 1.481471,-1.1424935 2.195673,-1.3589861 z"
     fill="#e68c3f"
     id="path21"
     style="stroke-width:1.60075" />
  <path
     fill-rule="evenodd"
     clip-rule="evenodd"
     d="m 17.489579,9.4253309 c 0.0047,0.075009 -0.0611,0.1391418 -0.146821,0.1431057 -1.210352,0.057689 -2.060898,1.2189624 -3.427672,1.2189624 -0.764827,0 -1.370266,-0.31028 -1.803219,-0.608673 -0.08712,-0.06003 -0.85683,-0.5589189 -0.85683,-0.6860262 0,-0.075142 0.06966,-0.1360597 0.155723,-0.1360597 0.160786,0 0.64594,0.4426724 0.826454,0.5671365 0.407815,0.2810744 1.013252,0.5916484 1.677872,0.5916484 1.353157,0 2.183278,-1.1599584 3.410563,-1.2185217 0.0859,-0.0041 0.159217,0.053427 0.16393,0.1284276 z"
     fill="#e68c3f"
     id="path22"
     style="stroke-width:1.60075" />
  <path
     d="m 12.897644,8.2837177 c 0.228697,-0.1797989 0.949008,-0.6692925 1.89819,-0.1698184 0.205827,0.099807 0.411657,0.209741 0.708964,0.359598 0.606135,0.3096949 0.308828,0.7591186 -0.423179,1.0388705 C 14.750095,9.6322829 14.20122,9.891927 13.789564,9.8719659 13.332169,9.8320456 13.02334,9.5722523 12.726033,9.4024342 12.165637,9.0829053 12.200029,8.8131333 12.462944,8.6033929 c 0.194481,-0.1598378 0.411831,-0.3096947 0.4347,-0.3196752 z"
     fill="url(#paint15_linear_87_7435)"
     id="path23"
     style="fill:url(#paint15_linear_87_7435);stroke-width:1.60075" />
  <defs
     id="defs54">
    <linearGradient
       id="paint0_linear_87_7435"
       x1="16.0578"
       y1="6.30617"
       x2="15.8364"
       y2="9.30598"
       gradientUnits="userSpaceOnUse"
       gradientTransform="matrix(1.7457834,0,0,1.4677463,-13.017114,-7.5522374)">
      <stop
         stop-color="white"
         stop-opacity="0.8"
         id="stop23" />
      <stop
         offset="1"
         stop-color="white"
         stop-opacity="0"
         id="stop24" />
    </linearGradient>
    <linearGradient
       id="paint1_linear_87_7435"
       x1="12.8966"
       y1="22.6721"
       x2="11.2506"
       y2="17.2716"
       gradientUnits="userSpaceOnUse"
       gradientTransform="matrix(1.7457834,0,0,1.4677463,-13.017114,-7.5522374)">
      <stop
         stop-color="#FFEED7"
         id="stop25" />
      <stop
         offset="1"
         stop-color="#BDBFC2"
         id="stop26" />
    </linearGradient>
    <linearGradient
       id="paint2_linear_87_7435"
       x1="12.8966"
       y1="22.6721"
       x2="11.2506"
       y2="17.2716"
       gradientUnits="userSpaceOnUse"
       gradientTransform="matrix(1.7457834,0,0,1.4677463,-13.017114,-7.5522374)">
      <stop
         stop-color="#FFEED7"
         id="stop27" />
      <stop
         offset="1"
         stop-color="#BDBFC2"
         id="stop28" />
    </linearGradient>
    <linearGradient
       id="paint3_linear_87_7435"
       x1="16.6681"
       y1="9.65546"
       x2="16.5748"
       y2="10.3542"
       gradientUnits="userSpaceOnUse"
       gradientTransform="matrix(1.7457834,0,0,1.4677463,-13.017114,-7.5522374)">
      <stop
         stop-color="white"
         stop-opacity="0.65"
         id="stop29" />
      <stop
         offset="1"
         stop-color="white"
         stop-opacity="0"
         id="stop30" />
    </linearGradient>
    <linearGradient
       id="paint4_linear_87_7435"
       x1="14.434"
       y1="9.78294"
       x2="14.5344"
       y2="10.3483"
       gradientUnits="userSpaceOnUse"
       gradientTransform="matrix(1.7457834,0,0,1.4677463,-13.017114,-7.5522374)">
      <stop
         stop-color="white"
         stop-opacity="0.65"
         id="stop31" />
      <stop
         offset="1"
         stop-color="white"
         stop-opacity="0"
         id="stop32" />
    </linearGradient>
    <linearGradient
       id="paint5_linear_87_7435"
       x1="15.7613"
       y1="15.6306"
       x2="15.778"
       y2="19.6272"
       gradientUnits="userSpaceOnUse"
       gradientTransform="matrix(1.7457834,0,0,1.4677463,-13.017114,-7.5522374)">
      <stop
         stop-color="white"
         stop-opacity="0.8"
         id="stop33" />
      <stop
         offset="1"
         stop-color="white"
         stop-opacity="0"
         id="stop34" />
    </linearGradient>
    <linearGradient
       id="paint6_linear_87_7435"
       x1="15.8504"
       y1="13.1247"
       x2="15.8688"
       y2="14.7138"
       gradientUnits="userSpaceOnUse"
       gradientTransform="matrix(1.7457834,0,0,1.4677463,-13.017114,-7.5522374)">
      <stop
         stop-color="white"
         stop-opacity="0.65"
         id="stop35" />
      <stop
         offset="1"
         stop-color="white"
         stop-opacity="0"
         id="stop36" />
    </linearGradient>
    <linearGradient
       id="paint7_linear_87_7435"
       x1="11.72"
       y1="14.1055"
       x2="11.72"
       y2="19.9372"
       gradientUnits="userSpaceOnUse"
       gradientTransform="matrix(1.7457834,0,0,1.4677463,-13.017114,-7.5522374)">
      <stop
         stop-color="white"
         stop-opacity="0.65"
         id="stop37" />
      <stop
         offset="1"
         stop-color="white"
         stop-opacity="0"
         id="stop38" />
    </linearGradient>
    <linearGradient
       id="paint8_linear_87_7435"
       x1="21.033"
       y1="13.5359"
       x2="21.0308"
       y2="18.8052"
       gradientUnits="userSpaceOnUse"
       gradientTransform="matrix(1.7457834,0,0,1.4677463,-13.017114,-7.5522374)">
      <stop
         stop-color="white"
         stop-opacity="0.65"
         id="stop39" />
      <stop
         offset="1"
         stop-color="white"
         stop-opacity="0"
         id="stop40" />
    </linearGradient>
    <linearGradient
       id="paint9_linear_87_7435"
       x1="11.4286"
       y1="22.4374"
       x2="10.5354"
       y2="25.4214"
       gradientUnits="userSpaceOnUse"
       gradientTransform="matrix(1.7457834,0,0,1.4677463,-13.017114,-7.5522374)">
      <stop
         stop-color="#FFA63F"
         id="stop41" />
      <stop
         offset="1"
         stop-color="#FFFF00"
         id="stop42" />
    </linearGradient>
    <linearGradient
       id="paint10_linear_87_7435"
       x1="19.882"
       y1="21.53"
       x2="22.2656"
       y2="24.7801"
       gradientUnits="userSpaceOnUse"
       gradientTransform="matrix(1.7457834,0,0,1.4677463,-13.017114,-7.5522374)">
      <stop
         stop-color="#FFA63F"
         id="stop43" />
      <stop
         offset="1"
         stop-color="#FFFF00"
         id="stop44" />
    </linearGradient>
    <linearGradient
       id="paint11_linear_87_7435"
       x1="20.5198"
       y1="18.9333"
       x2="19.6863"
       y2="22.8605"
       gradientUnits="userSpaceOnUse"
       gradientTransform="matrix(1.7457834,0,0,1.4677463,-13.017114,-7.5522374)">
      <stop
         stop-color="white"
         stop-opacity="0.65"
         id="stop45" />
      <stop
         offset="1"
         stop-color="white"
         stop-opacity="0"
         id="stop46" />
    </linearGradient>
    <linearGradient
       id="paint12_linear_87_7435"
       x1="11.2464"
       y1="19.9042"
       x2="11.4117"
       y2="24.3239"
       gradientUnits="userSpaceOnUse"
       gradientTransform="matrix(1.7457834,0,0,1.4677463,-13.017114,-7.5522374)">
      <stop
         stop-color="white"
         stop-opacity="0.65"
         id="stop47" />
      <stop
         offset="1"
         stop-color="white"
         stop-opacity="0"
         id="stop48" />
    </linearGradient>
    <linearGradient
       id="paint13_linear_87_7435"
       x1="20.3755"
       y1="18.8616"
       x2="20.5688"
       y2="20.1822"
       gradientUnits="userSpaceOnUse"
       gradientTransform="matrix(1.7457834,0,0,1.4677463,-13.017114,-7.5522374)">
      <stop
         stop-color="white"
         stop-opacity="0.65"
         id="stop49" />
      <stop
         offset="1"
         stop-color="white"
         stop-opacity="0"
         id="stop50" />
    </linearGradient>
    <linearGradient
       id="paint14_linear_87_7435"
       x1="15.7644"
       y1="10.784"
       x2="15.7805"
       y2="13.1098"
       gradientUnits="userSpaceOnUse"
       gradientTransform="matrix(1.7457834,0,0,1.4677463,-13.017114,-7.5522374)">
      <stop
         stop-color="#FFA63F"
         id="stop51" />
      <stop
         offset="1"
         stop-color="#FFFF00"
         id="stop52" />
    </linearGradient>
    <linearGradient
       id="paint15_linear_87_7435"
       x1="15.5106"
       y1="10.5638"
       x2="15.5062"
       y2="11.7936"
       gradientUnits="userSpaceOnUse"
       gradientTransform="matrix(1.7457834,0,0,1.4677463,-13.017114,-7.5522374)">
      <stop
         stop-color="white"
         stop-opacity="0.65"
         id="stop53" />
      <stop
         offset="1"
         stop-color="white"
         stop-opacity="0"
         id="stop54" />
    </linearGradient>
  </defs>
</svg>
