<?xml version="1.0" encoding="UTF-8" standalone="no"?>
<svg
   width="1315.613mm"
   height="344.79999mm"
   viewBox="0 0 1315.613 344.79999"
   version="1.1"
   id="svg289"
   inkscape:version="1.3 (0e150ed, 2023-07-21)"
   sodipodi:docname="OpenWrt_Logo.svg"
   xmlns:inkscape="http://www.inkscape.org/namespaces/inkscape"
   xmlns:sodipodi="http://sodipodi.sourceforge.net/DTD/sodipodi-0.dtd"
   xmlns="http://www.w3.org/2000/svg"
   xmlns:svg="http://www.w3.org/2000/svg"
   xmlns:rdf="http://www.w3.org/1999/02/22-rdf-syntax-ns#"
   xmlns:cc="http://creativecommons.org/ns#"
   xmlns:dc="http://purl.org/dc/elements/1.1/">
  <defs
     id="defs283">
    <clipPath
       clipPathUnits="userSpaceOnUse"
       id="clipPath32">
      <path
         d="M 0,0 H 792 V 612 H 0 Z"
         id="path30" />
    </clipPath>
    <clipPath
       clipPathUnits="userSpaceOnUse"
       id="clipPath60">
      <path
         d="M 0,0 H 792 V 612 H 0 Z"
         id="path58" />
    </clipPath>
    <clipPath
       clipPathUnits="userSpaceOnUse"
       id="clipPath82">
      <path
         d="M 0,0 H 792 V 612 H 0 Z"
         id="path80" />
    </clipPath>
    <clipPath
       clipPathUnits="userSpaceOnUse"
       id="clipPath106">
      <path
         d="M 0,0 H 792 V 612 H 0 Z"
         id="path104" />
    </clipPath>
    <clipPath
       clipPathUnits="userSpaceOnUse"
       id="clipPath126">
      <path
         d="M 0,0 H 792 V 612 H 0 Z"
         id="path124" />
    </clipPath>
    <clipPath
       clipPathUnits="userSpaceOnUse"
       id="clipPath146">
      <path
         d="M 0,0 H 792 V 612 H 0 Z"
         id="path144" />
    </clipPath>
    <clipPath
       clipPathUnits="userSpaceOnUse"
       id="clipPath166">
      <path
         d="M 0,0 H 792 V 612 H 0 Z"
         id="path164" />
    </clipPath>
  </defs>
  <sodipodi:namedview
     id="base"
     pagecolor="#ffffff"
     bordercolor="#666666"
     borderopacity="1.0"
     inkscape:pageopacity="0.0"
     inkscape:pageshadow="2"
     inkscape:zoom="0.13595835"
     inkscape:cx="2254.3669"
     inkscape:cy="684.03301"
     inkscape:document-units="mm"
     inkscape:current-layer="layer1"
     inkscape:document-rotation="0"
     showgrid="false"
     fit-margin-top="0"
     fit-margin-left="0"
     fit-margin-right="0"
     fit-margin-bottom="0"
     inkscape:window-width="1440"
     inkscape:window-height="900"
     inkscape:window-x="0"
     inkscape:window-y="0"
     inkscape:window-maximized="0"
     inkscape:showpageshadow="2"
     inkscape:pagecheckerboard="0"
     inkscape:deskcolor="#d1d1d1" />
  <metadata
     id="metadata286">
    <rdf:RDF>
      <cc:Work
         rdf:about="">
        <dc:format>image/svg+xml</dc:format>
        <dc:type
           rdf:resource="http://purl.org/dc/dcmitype/StillImage" />
      </cc:Work>
    </rdf:RDF>
  </metadata>
  <g
     inkscape:label="Layer 1"
     inkscape:groupmode="layer"
     id="layer1"
     transform="translate(2.4795578,53.153574)">
    <path
       d="m 182.19947,-12.149223 c 20.26069,24.743318 30.38518,54.927556 30.38518,90.581521 0,35.394872 -10.12449,65.406402 -30.38518,90.020162 -20.26074,24.61376 -45.01472,36.92062 -74.27369,36.92062 -29.247254,0 -54.001216,-12.30686 -74.26194,-36.92062 C 13.414839,143.8387 3.2786017,113.82717 3.2786017,78.432298 c 0,-35.653965 10.1362373,-65.838203 30.3852383,-90.581521 20.260724,-24.728896 45.014686,-37.093344 74.26194,-37.093344 29.25897,0 54.01295,12.364448 74.27369,37.093344 M 153.43322,135.89317 c 12.36521,-15.27203 18.5361,-34.43045 18.5361,-57.460872 0,-23.044827 -6.17089,-42.318397 -18.5361,-57.835169 -12.34179,-15.5311267 -27.51096,-23.2894847 -45.50744,-23.2894847 -17.973057,0 -33.153915,7.758358 -45.495709,23.2894847 -12.353529,15.516772 -18.536155,34.790342 -18.536155,57.835169 0,23.030422 6.182626,42.188842 18.536155,57.460872 12.341794,15.28647 27.522652,22.9153 45.495709,22.9153 17.99648,0 33.16565,-7.62883 45.50744,-22.9153"
       style="fill:#43b0e8;fill-opacity:1;fill-rule:nonzero;stroke:none;stroke-width:12.9948"
       id="path36" />
    <path
       d="m 384.07339,40.416296 c 14.52392,18.309178 21.78588,41.282042 21.78588,68.932934 0,27.6365 -7.21504,50.55175 -21.64505,68.74577 -14.41836,18.17967 -31.42932,27.27666 -50.98609,27.27666 -19.36915,0 -35.67633,-6.5493 -48.92141,-19.64779 v 76.02915 H 245.18125 V 18.407865 h 39.12547 v 14.552342 c 13.04568,-13.343265 29.35285,-20.007671 48.92141,-20.007671 19.36895,0 36.32136,9.1546 50.84526,27.46376 M 356.21054,148.81759 c 7.80161,-9.83109 11.70825,-22.98723 11.70825,-39.46836 0,-16.495552 -3.90664,-29.709272 -11.70825,-39.655514 -7.81334,-9.946226 -17.7501,-14.912196 -29.81038,-14.912196 -11.06302,0 -20.84727,5.095503 -29.34106,15.286432 -8.50558,10.176566 -12.75238,23.275136 -12.75238,39.281278 0,15.99176 4.2468,29.03274 12.75238,39.0941 8.49379,10.06144 18.27804,15.09936 29.34106,15.09936 12.06028,0 21.99704,-4.90836 29.81038,-14.7251"
       style="fill:#43b0e8;fill-opacity:1;fill-rule:nonzero;stroke:none;stroke-width:12.9948"
       id="path40" />
    <path
       d="M 575.12722,122.07495 H 462.46731 c 1.98259,12.85389 6.37028,23.08801 13.19819,30.73122 6.81614,7.64321 14.77023,11.472 23.86235,11.472 16.79987,0 29.05945,-8.01746 36.75553,-24.02359 l 34.98412,9.09701 c -6.32342,18.43874 -15.70884,32.37213 -28.15628,41.829 -12.45905,9.47127 -26.98298,14.19249 -43.58337,14.19249 -21.34009,0 -39.32484,-8.96748 -53.95433,-26.91676 -14.62941,-17.94936 -21.93832,-40.97979 -21.93832,-69.1057 0,-28.140272 7.35587,-51.228289 22.07914,-69.292745 14.73502,-18.078896 32.86065,-27.103906 54.40015,-27.103906 20.16686,0 37.50633,8.665175 52.042,25.995542 14.52386,17.344805 22.18476,39.597937 22.97073,66.759439 z M 477.43697,63.505703 c -7.01555,5.829572 -11.60272,14.077355 -13.77306,24.743315 h 71.43455 c -2.36969,-11.15538 -6.71052,-19.518261 -13.03393,-25.103151 -6.32343,-5.57047 -13.64398,-8.362933 -21.95004,-8.362933 -8.09501,0 -15.6619,2.907559 -22.67752,8.722769"
       style="fill:#43b0e8;fill-opacity:1;fill-rule:nonzero;stroke:none;stroke-width:12.9948"
       id="path44" />
    <path
       d="m 733.42479,34.232599 c 10.87535,14.178126 16.30715,32.544887 16.30715,55.100279 V 199.92207 H 710.59486 V 99.523838 c 0,-12.85387 -2.71003,-23.15994 -8.15359,-30.918335 -5.43181,-7.758377 -12.69377,-11.644766 -21.78588,-11.644766 -24.50758,0 -36.76728,20.856941 -36.76728,62.570793 v 80.39054 H 604.76276 V 18.413578 h 39.12535 V 34.77959 c 11.86076,-14.55236 27.38193,-21.835706 46.55156,-21.835706 17.78537,0 32.12157,7.096226 42.98512,21.288715"
       style="fill:#43b0e8;fill-opacity:1;fill-rule:nonzero;stroke:none;stroke-width:12.9948"
       id="path48" />
    <path
       d="M 991.03622,199.91628 H 947.75779 L 909.21899,35.507875 870.37529,199.91628 H 827.3901 L 769.57605,-43.788701 h 42.09351 l 37.95221,168.050071 40.02871,-168.050071 h 38.83197 l 40.02884,168.050071 37.94041,-168.050071 h 42.3985 z"
       style="fill:#43b0e8;fill-opacity:1;fill-rule:nonzero;stroke:none;stroke-width:12.9948"
       id="path52" />
    <path
       d="m 1170.6728,17.321103 -2.0765,46.190386 h -8.5993 c -35.1836,0 -52.7695,25.952409 -52.7695,77.842811 v 58.55483 h -39.1369 V 18.415047 h 39.1369 v 33.091824 c 13.4446,-23.764498 31.1361,-35.639584 53.0745,-35.639584 4.5402,0 8.0011,0.474854 10.3708,1.453778"
       style="fill:#43b0e8;fill-opacity:1;fill-rule:nonzero;stroke:none;stroke-width:12.9948"
       id="path64" />
    <path
       d="m 1305.8457,191.91327 c -13.632,8.98185 -26.4781,13.45839 -38.5385,13.45839 -18.1843,0 -32.4149,-6.00227 -42.6919,-18.0069 -10.2769,-12.00457 -15.4155,-30.12667 -15.4155,-54.38058 V 57.689098 h -31.7227 V 18.407865 h 31.7227 v -54.927537 h 39.137 v 54.927537 h 48.3232 v 39.281233 h -48.3232 v 71.653422 c 0,20.85691 7.2152,31.29257 21.6334,31.29257 7.5199,0 15.7206,-2.92183 24.6133,-8.73716 z"
       style="fill:#43b0e8;fill-opacity:1;fill-rule:nonzero;stroke:none;stroke-width:12.9948"
       id="path68" />
    <path
       d="m 375.80713,287.42616 h -11.43849 l -7.23845,-32.81833 -7.29727,32.81833 h -11.3797 l -12.34186,-53.11389 h 10.92227 l 7.56702,33.45168 7.4262,-33.45168 h 10.14792 l 7.42621,33.45168 7.567,-33.45168 h 10.98093 z"
       style="fill:#ffffff;fill-opacity:1;fill-rule:nonzero;stroke:none;stroke-width:12.9948"
       id="path72" />
    <path
       d="m 405.22327,287.42041 h 10.66419 v -53.11389 h -10.66419 z"
       style="fill:#ffffff;fill-opacity:1;fill-rule:nonzero;stroke:none;stroke-width:12.9948"
       id="path74" />
    <path
       d="m 463.12548,287.42616 -13.05755,-18.23719 h -3.097 v 18.23719 h -10.66418 v -53.11389 h 21.90313 c 4.69275,0 8.47047,1.59778 11.3095,4.79321 2.85092,3.1956 4.27029,7.3841 4.27029,12.56595 0,4.33261 -1.02061,7.98872 -3.03851,10.98262 -2.02958,2.97978 -4.79832,4.95158 -8.3413,5.90154 l 13.57355,18.87057 z m -6.0771,-29.17666 c 1.90057,0 3.41387,-0.58997 4.56371,-1.74185 1.13798,-1.16611 1.71293,-2.72067 1.71293,-4.67802 0,-1.91444 -0.5752,-3.44 -1.71293,-4.6061 -1.14972,-1.1514 -2.66314,-1.7418 -4.56371,-1.7418 h -10.07755 v 12.76745 z"
       style="fill:#ffffff;fill-opacity:1;fill-rule:nonzero;stroke:none;stroke-width:12.9948"
       id="path86" />
    <path
       d="m 526.84741,287.42616 h -33.72877 v -53.11389 h 33.52931 v 11.25611 h -22.86519 v 9.98945 h 20.99987 v 10.62277 h -20.99987 v 9.98945 h 23.06465 z"
       style="fill:#ffffff;fill-opacity:1;fill-rule:nonzero;stroke:none;stroke-width:12.9948"
       id="path90" />
    <path
       d="m 578.42027,287.42616 h -31.99246 v -53.11389 h 10.6758 v 41.69944 h 21.31666 z"
       style="fill:#ffffff;fill-opacity:1;fill-rule:nonzero;stroke:none;stroke-width:12.9948"
       id="path94" />
    <path
       d="m 631.02997,287.42616 h -33.7287 v -53.11389 h 33.52937 v 11.25611 h -22.86518 v 9.98945 h 20.99979 v 10.62277 h -20.99979 v 9.98945 h 23.06451 z"
       style="fill:#ffffff;fill-opacity:1;fill-rule:nonzero;stroke:none;stroke-width:12.9948"
       id="path98" />
    <path
       d="m 679.50336,237.19538 c 3.19126,2.72067 5.18553,6.49172 6.00661,11.29931 l -10.46465,2.61989 c -0.38664,-2.37508 -1.3024,-4.21746 -2.72163,-5.51292 -1.40774,-1.29544 -3.03854,-1.94339 -4.84522,-1.94339 -1.72468,0 -3.12064,0.51822 -4.19999,1.54028 -1.07942,1.03637 -1.6188,2.31755 -1.6188,3.85742 0,2.31753 1.17318,3.79989 3.49606,4.43331 l 8.97478,2.46117 c 7.93061,2.15925 11.89592,7.32658 11.89592,15.45921 0,5.44094 -1.70096,9.67276 -5.10325,12.68113 -3.40224,3.00829 -7.64911,4.51968 -12.72892,4.51968 -5.0446,0 -9.3151,-1.41052 -12.82287,-4.23181 -3.51955,-2.83571 -5.54913,-6.7796 -6.11219,-11.86066 l 10.98089,-2.6052 c 1.04423,5.225 3.88321,7.84473 8.52898,7.84473 1.98264,0 3.55473,-0.5038 4.69261,-1.51128 1.13807,-1.00741 1.71308,-2.33182 1.71308,-3.95819 0,-1.26652 -0.29268,-2.27431 -0.88001,-3.02261 -0.57519,-0.734 -1.61887,-1.29546 -3.13222,-1.65534 l -9.04525,-2.38937 c -7.75463,-2.15923 -11.62609,-7.28334 -11.62609,-15.37279 0,-5.13867 1.57194,-9.19776 4.7161,-12.22051 3.1443,-3.00835 7.27364,-4.50533 12.40038,-4.50533 4.75149,0 8.70503,1.35299 11.89606,4.07366"
       style="fill:#ffffff;fill-opacity:1;fill-rule:nonzero;stroke:none;stroke-width:12.9948"
       id="path110" />
    <path
       d="m 733.14441,237.19538 c 3.1913,2.72067 5.19721,6.49172 6.01845,11.29931 l -10.47654,2.61989 c -0.38726,-2.37508 -1.29057,-4.21746 -2.70995,-5.51292 -1.41967,-1.29544 -3.03858,-1.94339 -4.84519,-1.94339 -1.72456,0 -3.13235,0.51822 -4.20002,1.54028 -1.07911,1.03637 -1.61874,2.31755 -1.61874,3.85742 0,2.31753 1.16157,3.79989 3.48424,4.43331 l 8.98656,2.46117 c 7.91886,2.15925 11.88418,7.32658 11.88418,15.45921 0,5.44094 -1.68942,9.67276 -5.10328,12.68113 -3.40216,3.00829 -7.64911,4.51968 -12.72892,4.51968 -5.03292,0 -9.31503,-1.41052 -12.82283,-4.23181 -3.50776,-2.83571 -5.54908,-6.7796 -6.11221,-11.86066 l 10.99267,-2.6052 c 1.03218,5.225 3.87141,7.84473 8.52894,7.84473 1.98272,0 3.5429,-0.5038 4.68091,-1.51128 1.14964,-1.00741 1.71298,-2.33182 1.71298,-3.95819 0,-1.26652 -0.29268,-2.27431 -0.86833,-3.02261 -0.58662,-0.734 -1.63075,-1.29546 -3.13222,-1.65534 l -9.0452,-2.38937 c -7.76643,-2.15923 -11.6379,-7.28334 -11.6379,-15.37279 0,-5.13867 1.57201,-9.19776 4.71611,-12.22051 3.14426,-3.00835 7.28539,-4.50533 12.4005,-4.50533 4.75136,0 8.71668,1.35299 11.89599,4.07366"
       style="fill:#ffffff;fill-opacity:1;fill-rule:nonzero;stroke:none;stroke-width:12.9948"
       id="path114" />
    <path
       d="m 797.5199,256.98131 h 20.28414 v 11.41448 H 797.5199 v 19.02888 h -10.66426 v -53.11392 h 33.47071 V 245.7972 H 797.5199 Z"
       style="fill:#ffffff;fill-opacity:1;fill-rule:nonzero;stroke:none;stroke-width:12.9948"
       id="path118" />
    <path
       d="m 865.25324,287.42616 -13.05741,-18.23719 h -3.09714 v 18.23719 h -10.66404 v -53.11389 h 21.90307 c 4.69268,0 8.45863,1.59778 11.30942,4.79321 2.85095,3.1956 4.27034,7.3841 4.27034,12.56595 0,4.33261 -1.02053,7.98872 -3.05011,10.98262 -2.01801,2.97978 -4.79835,4.95158 -8.32958,5.90154 l 13.57359,18.87057 z m -6.08877,-29.17666 c 1.91217,0 3.42574,-0.58997 4.56368,-1.74185 1.138,-1.16611 1.71269,-2.72067 1.71269,-4.67802 0,-1.91444 -0.57521,-3.44 -1.71269,-4.6061 -1.13794,-1.1514 -2.65144,-1.7418 -4.56368,-1.7418 h -10.06583 v 12.76745 z"
       style="fill:#ffffff;fill-opacity:1;fill-rule:nonzero;stroke:none;stroke-width:12.9948"
       id="path130" />
    <path
       d="m 928.97532,287.42616 h -33.72879 v -53.11389 h 33.52936 v 11.25611 h -22.86523 v 9.98945 h 20.98816 v 10.62277 h -20.98816 v 9.98945 h 23.06466 z"
       style="fill:#ffffff;fill-opacity:1;fill-rule:nonzero;stroke:none;stroke-width:12.9948"
       id="path134" />
    <path
       d="m 982.29481,287.42616 h -33.72878 v -53.11389 h 33.52936 v 11.25611 h -22.87683 v 9.98945 H 980.23 v 10.62277 h -21.01144 v 9.98945 h 23.07625 z"
       style="fill:#ffffff;fill-opacity:1;fill-rule:nonzero;stroke:none;stroke-width:12.9948"
       id="path138" />
    <path
       d="m 1019.0024,234.30507 c 7.1094,0 12.8345,2.44687 17.1871,7.34094 4.3525,4.87953 6.5228,11.29927 6.5228,19.21598 0,7.93115 -2.1702,14.33648 -6.5228,19.23042 -4.3526,4.89396 -10.0777,7.32653 -17.1871,7.32653 h -17.1284 v -53.11387 z m -0.3866,41.78581 c 4.0475,0 7.2853,-1.39625 9.7255,-4.15989 2.4287,-2.77821 3.6486,-6.46289 3.6486,-11.069 0,-4.59168 -1.2201,-8.27655 -3.6486,-11.05458 -2.4402,-2.77821 -5.678,-4.15988 -9.7255,-4.15988 h -6.0771 v 30.44335 z"
       style="fill:#ffffff;fill-opacity:1;fill-rule:nonzero;stroke:none;stroke-width:12.9948"
       id="path150" />
    <path
       d="m 1099.6242,241.20123 c 4.4581,5.39775 6.687,11.97582 6.687,19.74857 0,7.71519 -2.2291,14.25008 -6.687,19.61905 -4.4581,5.36894 -9.9134,8.04626 -16.3776,8.04626 -6.4642,0 -11.9194,-2.67744 -16.3775,-8.04626 -4.458,-5.36897 -6.687,-11.90386 -6.687,-19.61905 0,-7.77275 2.229,-14.35082 6.687,-19.74857 4.4581,-5.38338 9.9133,-8.08945 16.3775,-8.08945 6.4642,0 11.9195,2.70599 16.3776,8.08945 m -7.5201,30.96152 c 2.3698,-2.97976 3.5547,-6.72199 3.5547,-11.21295 0,-4.54852 -1.1848,-8.3341 -3.5547,-11.34249 -2.3814,-3.00833 -5.3262,-4.5197 -8.8575,-4.5197 -3.5311,0 -6.4876,1.51129 -8.8457,4.5197 -2.3814,3.00832 -3.5665,6.79397 -3.5665,11.34249 0,4.49096 1.1849,8.23339 3.5665,11.21295 2.3582,2.99403 5.3146,4.49095 8.8457,4.49095 3.5313,0 6.476,-1.49703 8.8575,-4.49095"
       style="fill:#ffffff;fill-opacity:1;fill-rule:nonzero;stroke:none;stroke-width:12.9948"
       id="path154" />
    <path
       d="m 1175.2103,287.42616 h -10.3356 v -26.48497 l -11.3093,26.48497 h -6.5933 l -11.368,-26.64333 v 26.64333 h -10.3474 v -53.11389 h 10.4646 l 14.5475,32.90469 14.5356,-32.90469 h 10.4059 z"
       style="fill:#ffffff;fill-opacity:1;fill-rule:nonzero;stroke:none;stroke-width:12.9948"
       id="path158" />
    <path
       d="m 1307.4922,-20.866196 c 0,3.483262 -0.5275,6.721997 -1.5957,9.730353 -1.0675,3.0083317 -2.5223,5.6424667 -4.3641,7.9023157 -1.8536,2.27429697 -4.0124,4.05898197 -6.4993,5.354566 -2.4875,1.309743 -5.1386,1.9719493 -7.9894,1.9719493 -2.8392,0 -5.4788,-0.6622613 -7.9307,-1.9719493 -2.452,-1.29546903 -4.5988,-3.08014503 -6.4407,-5.354566 -1.8537,-2.260014 -3.3083,-4.893984 -4.3644,-7.9023157 -1.0674,-3.008316 -1.6071,-6.247014 -1.6071,-9.730353 0,-3.483257 0.5395,-6.750806 1.6071,-9.802338 1.0559,-3.051579 2.5106,-5.700023 4.3644,-7.974288 1.842,-2.260015 3.9887,-4.04469 6.4407,-5.35455 2.4519,-1.30975 5.0915,-1.95768 7.9307,-1.95768 2.8505,0 5.5019,0.64793 7.9894,1.95768 2.4871,1.309734 4.6457,3.094823 6.4993,5.35455 1.842,2.274304 3.2965,4.922755 4.3641,7.974288 1.0676,3.051571 1.5957,6.318994 1.5957,9.802338 m -3.2965,0 c 0,-2.87899 -0.4456,-5.599289 -1.3374,-8.175804 -0.8917,-2.561965 -2.1119,-4.807615 -3.6723,-6.721998 -1.5603,-1.914435 -3.3906,-3.425733 -5.4905,-4.505313 -2.0882,-1.093899 -4.3054,-1.641047 -6.6519,-1.641047 -2.3466,0 -4.5638,0.546743 -6.6517,1.641047 -2.0883,1.079628 -3.9302,2.590926 -5.4789,4.505313 -1.5719,1.914432 -2.7919,4.159878 -3.6837,6.721998 -0.8915,2.576638 -1.3256,5.29698 -1.3256,8.175804 0,2.864295 0.4342,5.59928 1.3256,8.161398 0.8914,2.576648 2.1115,4.8076057 3.6837,6.7364027 1.5489,1.914432 3.3904,3.411444 5.4789,4.50531 2.0883,1.09390097 4.3052,1.62637197 6.6517,1.62637197 2.3465,0 4.5637,-0.532411 6.6519,-1.62637197 2.1,-1.093898 3.9302,-2.590915 5.4905,-4.50531 1.5604,-1.928704 2.7806,-4.1598797 3.6723,-6.7364027 0.8913,-2.561946 1.3374,-5.296979 1.3374,-8.161398 m -13.21,10.320522 v -5.887156 c 0,-1.122861 -0.1994,-1.928695 -0.5868,-2.403634 -0.387,-0.489178 -1.1496,-0.719748 -2.2875,-0.719748 h -4.1533 v 9.010656 h -3.8362 v -22.872086 h 9.4793 c 1.7715,0 3.1793,0.633208 4.2,1.900142 1.0324,1.266488 1.5485,2.850017 1.5485,4.764443 0,1.223655 -0.2361,2.288576 -0.6919,3.209884 -0.4577,0.906624 -1.1495,1.583521 -2.0763,2.015213 0.8562,0.359095 1.4431,0.849091 1.7597,1.511299 0.3163,0.647848 0.4808,1.626368 0.4808,2.93651 v 6.534882 z m -7.0276,-18.942537 v 6.131838 h 4.8924 c 0.9972,0 1.7245,-0.273411 2.1822,-0.849084 0.4693,-0.561387 0.7041,-1.281196 0.7041,-2.144556 0,-0.964553 -0.2094,-1.727146 -0.6451,-2.288587 -0.4231,-0.561386 -1.1381,-0.849091 -2.1354,-0.849091 z"
       style="fill:#43b0e8;fill-opacity:1;fill-rule:nonzero;stroke:none;stroke-width:12.9948"
       id="path190" />
  </g>
</svg>
