<?xml version="1.0" encoding="UTF-8" standalone="no"?>
<svg
   id="Layer_1"
   data-name="Layer 1"
   viewBox="0 0 743.411 360.27348"
   version="1.1"
   sodipodi:docname="Ubuntu_name.svg"
   inkscape:version="1.3 (0e150ed, 2023-07-21)"
   width="743.41101"
   height="360.27347"
   xmlns:inkscape="http://www.inkscape.org/namespaces/inkscape"
   xmlns:sodipodi="http://sodipodi.sourceforge.net/DTD/sodipodi-0.dtd"
   xmlns="http://www.w3.org/2000/svg"
   xmlns:svg="http://www.w3.org/2000/svg">
  <sodipodi:namedview
     id="namedview9"
     pagecolor="#ffffff"
     bordercolor="#999999"
     borderopacity="1"
     inkscape:showpageshadow="2"
     inkscape:pageopacity="0"
     inkscape:pagecheckerboard="0"
     inkscape:deskcolor="#d1d1d1"
     inkscape:zoom="0.65505795"
     inkscape:cx="510.64184"
     inkscape:cy="180.13673"
     inkscape:window-width="1440"
     inkscape:window-height="442"
     inkscape:window-x="0"
     inkscape:window-y="25"
     inkscape:window-maximized="0"
     inkscape:current-layer="Layer_1" />
  <defs
     id="defs1">
    <style
       id="style1">.cls-1{fill:#1d1d1b;}.cls-2{fill:#e9500e;}.cls-3{fill:#fff;}</style>
  </defs>
  <path
     class="cls-1"
     d="m 65.280646,328.67804 q -16.27587,0 -27.71484,-4.95312 A 47.72194,47.72194 0 0 1 19.050176,310.04425 54.867,54.867 0 0 1 8.7894358,289.64093 95.14545,95.14545 0 0 1 5.6048658,264.52082 V 161.68146 H 21.643926 V 262.3988 a 75.39335,75.39335 0 0 0 3.18457,23.23242 44.82139,44.82139 0 0 0 8.84571,16.15722 34.4988,34.4988 0 0 0 13.67969,9.43555 53.93177,53.93177 0 0 0 35.85253,0 34.5365,34.5365 0 0 0 13.68067,-9.43555 44.82022,44.82022 0 0 0 8.844734,-16.15722 75.39335,75.39335 0 0 0 3.18457,-23.23242 V 161.68146 h 16.03906 V 264.5208 a 95.18621,95.18621 0 0 1 -3.1836,25.12011 54.86666,54.86666 0 0 1 -10.26074,20.40332 47.758,47.758 0 0 1 -18.515624,13.68067 q -11.44336,4.95266 -27.71485,4.95314 z"
     id="path1"
     style="fill:#ffffff;fill-opacity:1" />
  <path
     class="cls-1"
     d="m 177.57655,210.50714 q 4.00782,-3.063 12.85547,-6.48632 a 57.82051,57.82051 0 0 1 20.874,-3.4209 55.62889,55.62889 0 0 1 23.46973,4.71777 48.79834,48.79834 0 0 1 17.33594,13.209 58.33726,58.33726 0 0 1 10.73242,20.167 85.32351,85.32351 0 0 1 3.65625,25.59179 76.43564,76.43564 0 0 1 -4.36426,26.65332 57.36549,57.36549 0 0 1 -12.26465,20.04883 52.75477,52.75477 0 0 1 -18.87009,12.61917 65.52706,65.52706 0 0 1 -24.41211,4.36328 q -16.27589,0 -26.88965,-2.12207 a 137.63729,137.63729 0 0 1 -17.4541,-4.48242 V 144.93488 l 15.33105,-2.83057 z m 0,100.24512 a 67.60723,67.60723 0 0 0 10.4961,2.24024 126.0587,126.0587 0 0 0 18.28027,1.06152 q 19.81347,0 31.84277,-12.85449 12.0293,-12.854 12.0293,-36.91407 a 84.27316,84.27316 0 0 0 -2.12305,-19.22363 45.10124,45.10124 0 0 0 -6.83984,-15.80371 34.28239,34.28239 0 0 0 -12.38379,-10.73144 q -7.667,-4.00782 -18.98731,-4.00977 a 49.36958,49.36958 0 0 0 -10.37792,1.06152 60.36572,60.36572 0 0 0 -9.19922,2.71192 50.86656,50.86656 0 0 0 -7.42969,3.53808 52.485,52.485 0 0 0 -5.30762,3.53809 z"
     id="path2"
     style="fill:#ffffff;fill-opacity:1" />
  <path
     class="cls-1"
     d="m 390.11854,320.89386 q -6.84375,1.89111 -18.39843,4.2461 a 144.432,144.432 0 0 1 -28.30371,2.35839 q -13.68311,0 -22.87989,-4.00976 a 37.13457,37.13457 0 0 1 -14.86035,-11.32129 45.84149,45.84149 0 0 1 -8.13672,-17.69043 98.5593,98.5593 0 0 1 -2.47656,-22.87988 v -68.40235 h 15.33105 v 63.44922 a 108.31376,108.31376 0 0 0 1.88672,21.93653 q 1.88526,8.96631 6.13282,14.50586 a 23.9344,23.9344 0 0 0 10.96777,8.01953 47.63567,47.63567 0 0 0 16.39355,2.47656 131.12918,131.12918 0 0 0 18.86914,-1.17969 q 8.01709,-1.17772 10.14258,-2.12207 V 203.19464 h 15.332 z"
     id="path3"
     style="fill:#ffffff;fill-opacity:1" />
  <path
     class="cls-1"
     d="m 426.34413,207.44074 q 6.83789,-1.88526 18.39746,-4.2461 a 144.394,144.394 0 0 1 28.30469,-2.35839 q 13.91456,0 23.2334,4.00976 a 35.724,35.724 0 0 1 14.85937,11.43945 46.7354,46.7354 0 0 1 7.90235,17.8086 103.528,103.528 0 0 1 2.35839,22.8789 v 68.167 h -15.332 v -63.21289 a 115.49607,115.49607 0 0 0 -1.76855,-21.93653 36.64067,36.64067 0 0 0 -5.89649,-14.624 22.93876,22.93876 0 0 0 -10.85058,-8.1377 q -6.72217,-2.47558 -16.86426,-2.47656 a 129.12386,129.12386 0 0 0 -18.752,1.17969 q -7.90576,1.18212 -10.26075,2.123 v 107.085 h -15.33103 z"
     id="path4"
     style="fill:#ffffff;fill-opacity:1" />
  <path
     class="cls-1"
     d="m 571.00038,203.19464 h 48.58984 v 12.97266 h -48.58984 v 64.86523 a 65.85091,65.85091 0 0 0 1.76953,16.86427 23.493,23.493 0 0 0 5.07129,10.02442 16.05181,16.05181 0 0 0 8.01953,4.71777 42.67072,42.67072 0 0 0 10.37793,1.17871 q 9.66944,0 15.56738,-2.24023 a 67.63988,67.63988 0 0 0 9.19922,-4.12793 l 3.77344,12.7373 q -3.30468,2.12256 -11.55762,4.835 a 57.20451,57.20451 0 0 1 -17.92578,2.71289 q -11.32178,0 -18.9873,-2.94824 a 27.438,27.438 0 0 1 -12.26563,-8.96289 36.72953,36.72953 0 0 1 -6.48633,-14.97852 104.05734,104.05734 0 0 1 -1.88671,-21.22851 V 167.34259 l 15.33105,-2.83056 z"
     id="path5"
     style="fill:#ffffff;fill-opacity:1" />
  <path
     class="cls-1"
     d="m 738.46718,320.89386 q -6.84375,1.89111 -18.39844,4.2461 a 144.432,144.432 0 0 1 -28.30371,2.35839 q -13.68311,0 -22.87988,-4.00976 a 37.13454,37.13454 0 0 1 -14.86036,-11.32129 45.84162,45.84162 0 0 1 -8.13671,-17.69043 98.55874,98.55874 0 0 1 -2.47657,-22.87988 v -68.40235 h 15.33106 v 63.44922 a 108.313,108.313 0 0 0 1.88672,21.93653 q 1.88524,8.96631 6.13281,14.50586 a 23.93445,23.93445 0 0 0 10.96777,8.01953 47.63573,47.63573 0 0 0 16.39356,2.47656 131.12928,131.12928 0 0 0 18.86914,-1.17969 q 8.01708,-1.17772 10.14258,-2.12207 V 203.19464 h 15.332 z"
     id="path6"
     style="fill:#ffffff;fill-opacity:1" />
</svg>
