<?xml version="1.0" encoding="UTF-8" standalone="no"?>
<svg
   id="Layer_1"
   data-name="Layer 1"
   viewBox="0 0 228.41098 325.27302"
   version="1.1"
   sodipodi:docname="Ubuntu_logo.svg"
   inkscape:version="1.3 (0e150ed, 2023-07-21)"
   width="228.411"
   height="325.27301"
   xmlns:inkscape="http://www.inkscape.org/namespaces/inkscape"
   xmlns:sodipodi="http://sodipodi.sourceforge.net/DTD/sodipodi-0.dtd"
   xmlns="http://www.w3.org/2000/svg"
   xmlns:svg="http://www.w3.org/2000/svg">
  <sodipodi:namedview
     id="namedview9"
     pagecolor="#ffffff"
     bordercolor="#999999"
     borderopacity="1"
     inkscape:showpageshadow="2"
     inkscape:pageopacity="0"
     inkscape:pagecheckerboard="0"
     inkscape:deskcolor="#d1d1d1"
     inkscape:zoom="0.65505795"
     inkscape:cx="510.64184"
     inkscape:cy="179.37344"
     inkscape:window-width="1440"
     inkscape:window-height="767"
     inkscape:window-x="0"
     inkscape:window-y="25"
     inkscape:window-maximized="0"
     inkscape:current-layer="Layer_1" />
  <defs
     id="defs1">
    <style
       id="style1">.cls-1{fill:#1d1d1b;}.cls-2{fill:#e9500e;}.cls-3{fill:#fff;}</style>
  </defs>
  <rect
     class="cls-2"
     width="233.93118"
     height="323.6355"
     id="rect6"
     x="-3.0531647"
     y="7.2778306e-07"
     style="stroke-width:0.94779" />
  <circle
     class="cls-3"
     cx="43.388199"
     cy="199.63263"
     r="24.5497"
     id="circle6" />
  <circle
     class="cls-3"
     cx="145.62857"
     cy="145.80165"
     r="24.5497"
     id="circle7" />
  <path
     class="cls-3"
     d="m 98.756258,262.81371 a 59.78848,59.78848 0 0 1 -40.772,-31.0957 35.34018,35.34018 0 0 1 -20.99024,2.58008 79.92109,79.92109 0 0 0 57.53955,48.22363 80.88379,80.88379 0 0 0 17.432622,1.79395 35.1274,35.1274 0 0 1 -7.188,-20.52539 c -2.02193,-0.22461 -4.04145,-0.55274 -6.021932,-0.97657 z"
     id="path7" />
  <circle
     class="cls-3"
     cx="140.09763"
     cy="262.9491"
     r="24.5497"
     id="circle8" />
  <path
     class="cls-3"
     d="m 174.25968,253.93188 a 80.3186,80.3186 0 0 0 4.0249,-94.23828 35.38432,35.38432 0 0 1 -13.80518,16.168 60.18666,60.18666 0 0 1 -1.96728,59.78028 35.20475,35.20475 0 0 1 11.74756,18.29 z"
     id="path8" />
  <path
     class="cls-3"
     d="m 41.494048,164.42602 q 0.93458,-0.0513 1.87012,-0.0508 a 35.42979,35.42979 0 0 1 18.61767,5.30175 59.87445,59.87445 0 0 1 48.210902,-25.78418 35.5969,35.5969 0 0 1 7.44776,-19.90966 80.69546,80.69546 0 0 0 -76.146452,40.44287 z"
     id="path9" />
</svg>
